<?xml version="1.0" encoding="UTF-8" standalone="no"?>
<!DOCTYPE svg PUBLIC "-//W3C//DTD SVG 1.1//EN" "http://www.w3.org/Graphics/SVG/1.1/DTD/svg11.dtd">
<!-- Created with Vectornator (http://vectornator.io/) -->
<svg height="100%" stroke-miterlimit="10" style="fill-rule:nonzero;clip-rule:evenodd;stroke-linecap:round;stroke-linejoin:round;" version="1.1" viewBox="0 0 3827.05 3827.05" width="100%" xml:space="preserve" xmlns="http://www.w3.org/2000/svg" xmlns:vectornator="http://vectornator.io" xmlns:xlink="http://www.w3.org/1999/xlink">
<defs/>
<path d="M0 0L3827.05 0L3827.05 3827.05L0 3827.05L0 0Z" fill="#000000" fill-rule="nonzero" opacity="1" stroke="none"/>
<g id="Capa_x0020_1" vectornator:layerName="Capa_x0020_1">
<g fill="#ffffff" opacity="1" stroke="none" vectornator:layerName="Text 1">
<path d="M1078.54 2006.24C1078.54 2062.24 1052.94 2105.17 1001.74 2135.04C961.742 2159.04 915.076 2171.04 861.742 2171.04L614.542 2171.04L614.542 1587.84L866.542 1587.84C997.209 1587.84 1062.54 1639.31 1062.54 1742.24C1062.54 1793.44 1041.48 1833.97 999.342 1863.84C1052.14 1893.71 1078.54 1941.17 1078.54 2006.24ZM978.542 1742.24C978.542 1690.51 940.676 1664.64 864.942 1664.64L695.342 1664.64L695.342 1829.44L848.942 1829.44C887.876 1829.44 919.076 1821.17 942.542 1804.64C966.542 1788.64 978.542 1767.84 978.542 1742.24ZM993.742 2006.24C993.742 1972.64 980.142 1947.04 952.942 1929.44C929.476 1913.44 898.276 1905.44 859.342 1905.44L695.342 1905.44L695.342 2094.24L859.342 2094.24C898.809 2094.24 931.076 2085.71 956.142 2068.64C981.209 2051.04 993.742 2030.24 993.742 2006.24Z"/>
<path d="M1447.26 2043.85L1519.92 2052.83C1508.46 2095.28 1487.23 2128.22 1456.25 2151.66C1425.26 2175.1 1385.67 2186.81 1337.5 2186.81C1276.82 2186.81 1228.71 2168.13 1193.16 2130.76C1157.61 2093.39 1139.84 2040.98 1139.84 1973.53C1139.84 1903.74 1157.81 1849.57 1193.75 1811.03C1229.68 1772.49 1276.3 1753.22 1333.59 1753.22C1389.06 1753.22 1434.37 1772.1 1469.53 1809.86C1504.68 1847.62 1522.26 1900.75 1522.26 1969.24C1522.26 1973.4 1522.13 1979.65 1521.87 1987.99L1212.5 1987.99C1215.1 2033.56 1227.99 2068.45 1251.17 2092.67C1274.34 2116.89 1303.25 2129 1337.89 2129C1363.67 2129 1385.67 2122.23 1403.9 2108.69C1422.13 2095.15 1436.58 2073.53 1447.26 2043.85ZM1216.4 1930.17L1448.04 1930.17C1444.92 1895.28 1436.06 1869.11 1421.48 1851.66C1399.08 1824.57 1370.05 1811.03 1334.37 1811.03C1302.08 1811.03 1274.93 1821.84 1252.93 1843.45C1230.92 1865.07 1218.75 1893.98 1216.4 1930.17Z"/>
<path d="M2066.66 2171.04L1973.86 2171.04L1838.66 1918.24L1677.06 1918.24L1677.06 2171.04L1595.46 2171.04L1595.46 1586.24L1845.06 1586.24C1905.33 1586.24 1954.13 1600.64 1991.46 1629.44C2028.8 1658.24 2047.46 1699.04 2047.46 1751.84C2047.46 1828.11 2006.93 1879.31 1925.86 1905.44L2066.66 2171.04ZM1964.26 1751.84C1964.26 1692.11 1923.73 1662.24 1842.66 1662.24L1677.06 1662.24L1677.06 1841.44L1842.66 1841.44C1884.26 1841.44 1915.73 1832.37 1937.06 1814.24C1955.2 1798.24 1964.26 1777.44 1964.26 1751.84Z"/>
<path d="M2419.38 2043.85L2492.04 2052.83C2480.58 2095.28 2459.36 2128.22 2428.37 2151.66C2397.38 2175.1 2357.79 2186.81 2309.62 2186.81C2248.94 2186.81 2200.83 2168.13 2165.28 2130.76C2129.73 2093.39 2111.96 2040.98 2111.96 1973.53C2111.96 1903.74 2129.93 1849.57 2165.87 1811.03C2201.8 1772.49 2248.42 1753.22 2305.71 1753.22C2361.18 1753.22 2406.49 1772.1 2441.65 1809.86C2476.8 1847.62 2494.38 1900.75 2494.38 1969.24C2494.38 1973.4 2494.25 1979.65 2493.99 1987.99L2184.62 1987.99C2187.22 2033.56 2200.11 2068.45 2223.29 2092.67C2246.47 2116.89 2275.37 2129 2310.01 2129C2335.79 2129 2357.79 2122.23 2376.02 2108.69C2394.25 2095.15 2408.71 2073.53 2419.38 2043.85ZM2188.52 1930.17L2420.16 1930.17C2417.04 1895.28 2408.18 1869.11 2393.6 1851.66C2371.21 1824.57 2342.17 1811.03 2306.49 1811.03C2274.2 1811.03 2247.05 1821.84 2225.05 1843.45C2203.04 1865.07 2190.87 1893.98 2188.52 1930.17Z"/>
<path d="M2851.02 2126.27C2824.98 2148.4 2799.92 2164.03 2775.83 2173.14C2751.74 2182.26 2725.89 2186.81 2698.29 2186.81C2652.72 2186.81 2617.69 2175.68 2593.21 2153.42C2568.73 2131.15 2556.49 2102.7 2556.49 2068.06C2556.49 2047.75 2561.11 2029.2 2570.36 2012.4C2579.6 1995.6 2591.71 1982.13 2606.69 1971.97C2621.66 1961.81 2638.52 1954.13 2657.27 1948.92C2671.08 1945.28 2691.91 1941.76 2719.77 1938.38C2776.54 1931.61 2818.34 1923.53 2845.16 1914.16C2845.42 1904.52 2845.55 1898.4 2845.55 1895.8C2845.55 1867.15 2838.91 1846.97 2825.63 1835.25C2807.66 1819.37 2780.97 1811.42 2745.55 1811.42C2712.48 1811.42 2688.07 1817.22 2672.31 1828.81C2656.56 1840.39 2644.9 1860.9 2637.35 1890.33L2568.6 1880.95C2574.85 1851.53 2585.14 1827.76 2599.46 1809.67C2613.78 1791.57 2634.49 1777.63 2661.57 1767.87C2688.65 1758.1 2720.03 1753.22 2755.71 1753.22C2791.13 1753.22 2819.9 1757.39 2842.04 1765.72C2864.17 1774.05 2880.45 1784.54 2890.87 1797.17C2901.28 1809.8 2908.58 1825.75 2912.74 1845.02C2915.09 1857 2916.26 1878.61 2916.26 1909.86L2916.26 2003.61C2916.26 2068.98 2917.76 2110.32 2920.75 2127.63C2923.74 2144.95 2929.67 2161.55 2938.52 2177.44L2865.09 2177.44C2857.79 2162.86 2853.11 2145.8 2851.02 2126.27ZM2845.16 1969.24C2819.64 1979.65 2781.36 1988.51 2730.32 1995.8C2701.41 1999.97 2680.97 2004.65 2668.99 2009.86C2657.01 2015.07 2647.77 2022.69 2641.26 2032.71C2634.75 2042.74 2631.49 2053.87 2631.49 2066.11C2631.49 2084.86 2638.59 2100.49 2652.78 2112.99C2666.97 2125.49 2687.74 2131.74 2715.09 2131.74C2742.17 2131.74 2766.26 2125.81 2787.35 2113.96C2808.45 2102.11 2823.94 2085.9 2833.84 2065.33C2841.39 2049.44 2845.16 2026.01 2845.16 1995.02L2845.16 1969.24Z"/>
<path d="M3106.91 2171.04L3024.51 2171.04L3024.51 1587.04L3106.91 1587.04L3106.91 2171.04Z"/>
<path d="M3353.31 2177.44L3250.91 2177.44L3250.91 2075.04L3353.31 2075.04L3353.31 2177.44Z"/>
</g>
</g>
</svg>
