<?xml version="1.0" encoding="UTF-8" standalone="no"?>
<!DOCTYPE svg PUBLIC "-//W3C//DTD SVG 1.1//EN" "http://www.w3.org/Graphics/SVG/1.1/DTD/svg11.dtd">
<!-- Created with Vectornator (http://vectornator.io/) -->
<svg height="100%" stroke-miterlimit="10" style="fill-rule:nonzero;clip-rule:evenodd;stroke-linecap:round;stroke-linejoin:round;" version="1.1" viewBox="0 0 492 492" width="100%" xml:space="preserve" xmlns="http://www.w3.org/2000/svg" xmlns:vectornator="http://vectornator.io" xmlns:xlink="http://www.w3.org/1999/xlink">
<defs/>
<g id="Untitled" vectornator:layerName="Untitled">
<path d="M207.383 27.7492L207.583 26.9492L207.583 356.149L103.883 252.649C93.2924 242.203 76.2745 242.203 65.6835 252.649L49.5835 268.749C44.5139 273.766 41.653 280.596 41.6342 287.728C41.6155 294.861 44.4404 301.706 49.4835 306.749L226.883 484.149C237.475 494.595 254.492 494.595 265.083 484.149L442.483 306.749C452.906 296.226 452.906 279.272 442.483 268.749L426.383 252.649C421.405 247.611 414.617 244.775 407.533 244.775C400.45 244.775 393.662 247.611 388.683 252.649L284.383 357.349L284.383 27.3492C284.009 12.3133 271.823 0.259378 256.783 0.0491777L233.983 0.0491777C219.047 0.4845 207.214 12.8073 207.383 27.7492Z" fill="#a3a3a3" fill-rule="nonzero" opacity="1" stroke="none" vectornator:layerName="path"/>
</g>
</svg>
