<svg version="1.1" id="Layer_1" xmlns="http://www.w3.org/2000/svg" x="0" y="0" viewBox="0 0 72 72" xml:space="preserve"><style>.st1{fill:#fff}</style><path fill="#0e1525" d="M0 0h72v72H0z"/><path class="st1" d="M32.851 18.224c.363-.052.725-.113 1.09-.155 3.4-.387 6.665.117 9.748 1.603 4.285 2.066 7.299 5.345 9.076 9.759.094.234.121.506.132.762.1 2.352-.096 4.664-.943 6.887-1.155 3.034-3.268 5.15-6.193 6.49-1.72.787-3.534 1.227-5.408 1.448a24.37 24.37 0 0 1-4.317.122c-.058-.004-.116-.005-.174-.012-.078-.011-.156-.028-.229-.015.63-.085 1.268-.128 1.887-.262 2.37-.513 4.285-1.787 5.832-3.626 1.843-2.19 2.884-4.737 3.233-7.567.369-2.99-.134-5.823-1.659-8.442-1.053-1.809-2.507-3.232-4.274-4.344-1.882-1.184-3.945-1.896-6.112-2.33-.557-.112-1.122-.193-1.683-.288l-.006-.03z"/><path class="st1" d="M18.156 38.27c-.035-.314-.08-.627-.102-.942-.292-4.049.648-7.787 2.866-11.187 2.061-3.16 4.855-5.441 8.342-6.872a.738.738 0 0 1 .25-.062c2.312-.07 4.607.053 6.849.684 2.041.575 3.882 1.516 5.392 3.035 1.554 1.562 2.51 3.456 3.038 5.582.478 1.926.595 3.88.445 5.853-.057.757-.16 1.51-.242 2.266l-.061-.004c-.003-.048-.01-.096-.009-.144.11-2.993-.968-5.516-3.055-7.62-1.964-1.98-4.36-3.159-7.075-3.697-2.23-.442-4.445-.352-6.615.33-2.823.885-5.049 2.602-6.765 5-1.393 1.947-2.287 4.12-2.889 6.424-.117.448-.218.9-.326 1.35l-.043.004z"/><path class="st1" d="M37.329 27.263c-.454 0-.909-.01-1.362.001-2.919.079-5.331 1.287-7.32 3.368-2.096 2.192-3.309 4.827-3.69 7.828-.469 3.698.45 7.021 2.835 9.902 1.521 1.838 3.445 3.147 5.6 4.136 1.3.597 2.651 1.043 4.035 1.394.07.018.139.038.21.09-.1.011-.201.027-.302.034-4.142.258-7.97-.716-11.413-3.04-3.06-2.065-5.287-4.834-6.668-8.27a.767.767 0 0 1-.068-.271c-.015-2.44.197-4.85.945-7.191.742-2.321 1.96-4.324 3.884-5.852 1.23-.977 2.626-1.635 4.136-2.052 1.797-.498 3.632-.635 5.489-.546 1.16.056 2.308.2 3.442.45.084.019.166.042.25.064l-.003-.045z"/><path class="st1" d="M27.135 34.719c-.015.23-.036.46-.043.692-.078 2.596.765 4.877 2.418 6.852 2.019 2.413 4.626 3.863 7.677 4.528 2.29.499 4.567.415 6.803-.295 2.63-.835 4.74-2.417 6.424-4.589 1.57-2.022 2.581-4.316 3.293-6.757.065-.222.126-.445.19-.667.001-.006.01-.009.037-.03.011.082.026.15.03.218.327 5.891-1.687 10.83-6.043 14.797-1.613 1.469-3.467 2.562-5.507 3.337a.596.596 0 0 1-.209.047c-2.204-.018-4.38-.249-6.498-.888-1.852-.56-3.552-1.405-5.007-2.7-1.794-1.598-2.915-3.6-3.515-5.908-.52-2-.638-4.035-.448-6.087.08-.856.211-1.707.32-2.56l.078.01z"/><path class="st1" d="M31.111 35.968c.005-2.786 2.281-5.058 5.053-5.043a5.041 5.041 0 0 1 5.037 5.056c-.005 2.794-2.267 5.051-5.05 5.041a5.043 5.043 0 0 1-5.04-5.054z"/></svg>