<?xml version="1.0" encoding="UTF-8" standalone="no"?>
<!DOCTYPE svg PUBLIC "-//W3C//DTD SVG 1.1//EN" "http://www.w3.org/Graphics/SVG/1.1/DTD/svg11.dtd">
<!-- Created with Vectornator (http://vectornator.io/) -->
<svg height="100%" stroke-miterlimit="10" style="fill-rule:nonzero;clip-rule:evenodd;stroke-linecap:round;stroke-linejoin:round;" version="1.1" viewBox="0 0 72 72" width="100%" xml:space="preserve" xmlns="http://www.w3.org/2000/svg" xmlns:xlink="http://www.w3.org/1999/xlink">
<defs/>
<path d="M0 0L72 0L72 72L0 72L0 0Z" fill="#2dbf59" fill-rule="nonzero" opacity="1" stroke="none"/>
<g id="Untitled">
<path d="M36 18C26.1 18 18 26 18 36C18 46 26 54 36 54C46 54 54 46 54 36C54 26 45.9 18 36 18ZM44.2 43.9C43.9 44.4 43.2 44.6 42.7 44.3C38.5 41.7 33.2 41.1 26.9 42.6C26.3 42.7 25.7 42.4 25.6 41.8C25.5 41.2 25.8 40.6 26.4 40.5C33.2 38.9 39.1 39.6 43.8 42.5C44.4 42.7 44.6 43.4 44.2 43.9ZM46.4 39C46 39.7 45.1 39.9 44.5 39.5C39.7 36.5 32.3 35.7 26.6 37.4C25.9 37.6 25.1 37.2 24.9 36.5C24.7 35.8 25.1 35 25.8 34.8C32.3 32.8 40.4 33.8 46 37.2C46.6 37.5 46.8 38.4 46.4 39L46.4 39ZM46.6 33.9C40.8 30.5 31.3 30.1 25.7 31.8C24.8 32.1 23.9 31.6 23.6 30.7C23.3 29.8 23.8 28.9 24.7 28.6C31 26.7 41.6 27 48.3 31C49.1 31.5 49.4 32.5 48.9 33.3C48.5 34.1 47.4 34.4 46.6 33.9Z" fill="#ffffff" fill-rule="nonzero" opacity="1" stroke="none"/>
</g>
</svg>
