<?xml version="1.0" encoding="UTF-8" standalone="no"?>
<!DOCTYPE svg PUBLIC "-//W3C//DTD SVG 1.1//EN" "http://www.w3.org/Graphics/SVG/1.1/DTD/svg11.dtd">
<!-- Created with Vectornator (http://vectornator.io/) -->
<svg height="100%" stroke-miterlimit="10" style="fill-rule:nonzero;clip-rule:evenodd;stroke-linecap:round;stroke-linejoin:round;" version="1.1" viewBox="0 0 3827.05 3827.05" width="100%" xml:space="preserve" xmlns="http://www.w3.org/2000/svg" xmlns:vectornator="http://vectornator.io" xmlns:xlink="http://www.w3.org/1999/xlink">
<defs/>
<path d="M0 0L3827.05 0L3827.05 3827.05L0 3827.05L0 0Z" fill="#000000" fill-rule="nonzero" opacity="1" stroke="none"/>
<g id="Capa_x0020_1" vectornator:layerName="Capa_x0020_1">
<path d="M1922.37 2910.94C1720.69 2910.94 1627.95 2886.09 1473.87 2803.13C1340.38 2731.27 1225.3 2635.07 1163.69 2497.01C942.954 2002.47 1010.01 1262.81 1481.74 1017C1721.28 892.205 2101.24 878.49 2344.6 1002.21C2578.03 1120.89 2690.98 1306.04 2784.41 1543.59L2593.71 1598.07C2505.64 1278.12 2293.44 1100.86 1949 1100.86C1812.88 1100.86 1689.35 1114.53 1585.55 1165.99C1337.24 1289.03 1235.5 1577.65 1225.49 1869.99C1218.21 2082.44 1252.55 2296.87 1347.35 2451.16C1455.78 2627.61 1681.11 2739.21 1892.34 2739.21C2090.18 2739.21 2249.37 2704.82 2372.15 2589.66C2539.35 2432.8 2574.19 2182.67 2361.06 2030.17C2295.42 2590.44 1535.68 2558.48 1535.68 2113.16C1535.68 2020.69 1571.64 1939.99 1643.54 1871.1C1786.35 1734.25 2001.22 1774.69 2180.43 1771.97C2161.53 1687.4 2089.63 1564.85 1951.61 1564.85C1845.25 1564.85 1753.61 1591.59 1704.34 1673.96L1555.89 1577.65C1618.76 1459.58 1745.55 1382.04 1940.05 1382.04C2134.56 1382.04 2324.97 1509.31 2356.53 1750.67L2366.28 1825.21C2476.23 1869.57 2555.37 1952.32 2610.33 2035.7C2764.83 2270.15 2679.64 2570.9 2459 2757.87C2338.62 2859.89 2159.71 2910.92 1922.39 2910.92L1922.37 2910.94ZM1712.94 2109.39C1712.94 2201.13 1810.27 2269.74 1904.5 2269.74C2009.62 2269.74 2081.9 2240.1 2121.31 2180.8C2160.73 2121.52 2180.45 2050.1 2180.45 1966.6C2072.46 1939.16 1884.59 1919.48 1785.02 1985.38C1738.13 2016.42 1712.96 2055.95 1712.96 2109.39L1712.94 2109.39Z" fill="#ffffff" fill-rule="evenodd" opacity="1" stroke="none" vectornator:layerName="path"/>
</g>
</svg>
